<svg xmlns="http://www.w3.org/2000/svg" xmlns:xlink="http://www.w3.org/1999/xlink" xmlns:lucid="lucid" width="1240" height="641.67"><g transform="translate(-60 -58.333333333333314)" lucid:page-tab-id="0_0"><path d="M873.92 329.3c-.15 2.28-2 3.97-4.3 3.86H804.3c-2.3.1-4.15-1.58-4.3-3.85V223.86c.15-2.27 2-3.96 4.2-3.85h65.43c2.22-.1 4.14 1.58 4.3 3.85z" stroke="#000" stroke-opacity="0" fill="url(#a)"/><path d="M810.84 268.3c-.22-4.64 3.38-8.6 8.04-8.82h36.83c4.67.23 8.27 4.18 8.06 8.82.2 4.64-3.4 8.6-8.05 8.82H818.9c-4.66-.23-8.26-4.18-8.04-8.82zM810.84 242.28c-.22-4.66 3.38-8.6 8.04-8.84h36.83c4.67.23 8.27 4.18 8.06 8.84.2 4.64-3.4 8.57-8.05 8.8H818.9c-4.66-.23-8.26-4.16-8.04-8.8z" stroke="#000" stroke-opacity="0" fill="#003067"/><path d="M827.12 242.22c0 3.25-2.66 5.9-5.94 5.9-3.28 0-5.94-2.65-5.94-5.9 0-3.26 2.66-5.9 5.94-5.9 3.28 0 5.94 2.64 5.94 5.9zM827.12 268.38c0 3.25-2.66 5.9-5.94 5.9-3.28 0-5.94-2.65-5.94-5.9 0-3.26 2.66-5.9 5.94-5.9 3.28 0 5.94 2.64 5.94 5.9z" stroke="#000" stroke-opacity="0" fill="#50e6ff"/><path d="M901.62 290.45l-22.54-11.17-23.37 11.17-8.54 16.58V338c0 1.1.9 2 2.04 2h59.76c1.15 0 2.04-.9 2.04-2v-30.97z" stroke="#000" stroke-opacity="0" fill="url(#b)"/><path d="M842.16 316c-1.78 0-3.16-1.36-3.16-3.07 0-.47.08-.9.24-1.32l10.05-21.76c.3-.63.72-1.06 1.36-1.4l27.38-14.66c.97-.5 2.03-.5 3 0l26.4 14.66c.57.3.98.72 1.22 1.32l11.02 21.77c.73 1.5.16 3.36-1.38 4.13-1.54.77-3.4.17-4.2-1.36l-10.54-20.92-24.06-13.33-24.95 13.33-9.64 20.8c-.47 1.14-1.53 1.82-2.74 1.82z" stroke="#000" stroke-opacity="0" fill="#50e6ff"/><path d="M874.38 297.04h8.68c1.35 0 2.02.67 2.02 2v9.2c0 1.33-.67 2-2.02 2h-8.68c-1.35 0-2.02-.67-2.02-2v-9.2c0-1.33.67-2 2.02-2zM878.78 328.95l12.3-8.16c-.34-.25-.7-.36-1.13-.36H867.6c-.4 0-.78.1-1.12.35zM891.8 337.72v-15l-11.28 7.5 11.3 7.5zM876.8 330.22l-11.28-7.5v15l11.3-7.5zM891.8 340.03h.1v-.15l-.1.15zM865.52 339.88v.15h.1l-.1-.15zM865.88 340h25.56l-12.78-8.52-12.78 8.5z" stroke="#000" stroke-opacity="0" fill="#005ba1"/><use xlink:href="#c" transform="matrix(1,0,0,1,770,349) translate(63.55 14.4)"/><path d="M80 126a6 6 0 0 1 6-6h548a6 6 0 0 1 6 6v108a6 6 0 0 1-6 6H86a6 6 0 0 1-6-6z" stroke="#3a414a" fill="#c3f7c8"/><path d="M630 186a6 6 0 0 1 6-6h128a6 6 0 0 1 6 6v48a6 6 0 0 1-6 6H636a6 6 0 0 1-6-6z" stroke="#000" stroke-opacity="0" fill="#fff" fill-opacity="0"/><use xlink:href="#d" transform="matrix(1,0,0,1,635,185) translate(12.037037037037038 30.27777777777778)"/><use xlink:href="#e" transform="matrix(1,0,0,1,635,185) translate(105.61728395061728 30.27777777777778)"/><path d="M80 286a6 6 0 0 1 6-6h548a6 6 0 0 1 6 6v108a6 6 0 0 1-6 6H86a6 6 0 0 1-6-6z" stroke="#3a414a" fill="#c3f7c8"/><path d="M630 306a6 6 0 0 1 6-6h128a6 6 0 0 1 6 6v28a6 6 0 0 1-6 6H636a6 6 0 0 1-6-6z" stroke="#000" stroke-opacity="0" fill="#fff" fill-opacity="0"/><use xlink:href="#d" transform="matrix(1,0,0,1,635,305) translate(12.037037037037038 19.71527777777778)"/><use xlink:href="#f" transform="matrix(1,0,0,1,635,305) translate(105.61728395061728 19.71527777777778)"/><path d="M80 156a6 6 0 0 1 6-6h548a6 6 0 0 1 6 6v48a6 6 0 0 1-6 6H86a6 6 0 0 1-6-6z" stroke="#000" stroke-opacity="0" fill="#fff" fill-opacity="0"/><use xlink:href="#g" transform="matrix(1,0,0,1,85,155) translate(19.3209876543211 30.15972222222222)"/><use xlink:href="#h" transform="matrix(1,0,0,1,85,155) translate(56.802469135802575 30.15972222222222)"/><use xlink:href="#i" transform="matrix(1,0,0,1,85,155) translate(80.4074074074075 30.15972222222222)"/><use xlink:href="#j" transform="matrix(1,0,0,1,85,155) translate(297.1975308641976 30.15972222222222)"/><path d="M80 312.25a6 6 0 0 1 6-6h548a6 6 0 0 1 6 6v55.5a6 6 0 0 1-6 6H86a6 6 0 0 1-6-6z" stroke="#000" stroke-opacity="0" fill="#fff" fill-opacity="0"/><use xlink:href="#g" transform="matrix(1,0,0,1,85,311.25) translate(19.3209876543211 32.34722222222222)"/><use xlink:href="#h" transform="matrix(1,0,0,1,85,311.25) translate(56.802469135802575 32.34722222222222)"/><use xlink:href="#i" transform="matrix(1,0,0,1,85,311.25) translate(80.4074074074075 32.34722222222222)"/><use xlink:href="#j" transform="matrix(1,0,0,1,85,311.25) translate(297.1975308641976 32.34722222222222)"/><path d="M855.02 79.58l1 .24.93.4.87.52.78.66.66.78.53.87.38.94.24.98.08 1v117.64h-1V86.02l-.07-.88-.2-.84-.33-.8-.45-.73-.56-.66-.67-.55-.73-.45-.8-.33-.84-.2-.88-.07h-27.02v-1h27.06zM661.5 174.02l-.08 1-.24 1-.4.93-.52.87-.66.78-.78.66-.87.53-.94.38-.98.24-1 .08H641v-1h13.98l.88-.07.84-.2.8-.33.73-.45.66-.56.55-.67.45-.73.33-.8.2-.84.07-.88v-83.3h1z" stroke="#3a414a" stroke-width=".05" fill="#3a414a"/><path d="M641 180.5h-.5v-1h.5z" fill="#3a414a"/><path d="M641.04 180.53h-.56v-1.06h.56zm-.5-1v.94h.45v-.94z" stroke="#3a414a" stroke-width=".05" fill="#3a414a"/><path d="M860 218.38l-4.63-14.26h9.26z" fill="#3a414a"/><path d="M860 220l-5.32-16.38h10.64zm-3.95-15.38l3.95 12.14 3.95-12.14z" stroke="#3a414a" stroke-width=".05" fill="#3a414a"/><use xlink:href="#k" transform="matrix(1,0,0,1,634.4703379572563,69.33333333333333) translate(0 14.222222222222223)"/><use xlink:href="#l" transform="matrix(1,0,0,1,634.4703379572563,69.33333333333333) translate(68.2962962962963 14.222222222222223)"/><use xlink:href="#m" transform="matrix(1,0,0,1,634.4703379572563,69.33333333333333) translate(96.83950617283952 14.222222222222223)"/><use xlink:href="#n" transform="matrix(1,0,0,1,634.4703379572563,69.33333333333333) translate(136.2962962962963 14.222222222222223)"/><path d="M859.17 474.02l-.08 1-.25 1-.4.93-.52.87-.67.78-.77.66-.88.53-.94.38-1 .24-1 .08h-24.05v-1h24.02l.88-.07.84-.2.8-.33.73-.45.65-.56.57-.67.45-.73.33-.8.2-.84.07-.88v-117.6h1zM656.02 339.58l1 .24.93.4.87.52.78.66.66.78.53.87.38.94.24.98.08 1v123.35h-1v-123.3l-.07-.9-.2-.83-.33-.8-.45-.73-.56-.66-.67-.55-.73-.45-.8-.33-.84-.2-.88-.07H641v-1h14.02z" stroke="#3a414a" stroke-width=".05" fill="#3a414a"/><path d="M641 340.5h-.5v-1h.5z" fill="#3a414a"/><path d="M641.04 340.52h-.56v-1.04h.56zm-.5-1v.96h.45v-.96z" stroke="#3a414a" stroke-width=".05" fill="#3a414a"/><path d="M863.3 355.88h-9.27l4.64-14.26z" fill="#3a414a"/><path d="M864 356.38h-10.66l5.33-16.38zm-9.28-1h7.9l-3.95-12.14z" stroke="#3a414a" stroke-width=".05" fill="#3a414a"/><use xlink:href="#k" transform="matrix(1,0,0,1,636.1391249918174,469.3333333333333) translate(0 14.222222222222223)"/><use xlink:href="#l" transform="matrix(1,0,0,1,636.1391249918174,469.3333333333333) translate(68.2962962962963 14.222222222222223)"/><use xlink:href="#m" transform="matrix(1,0,0,1,636.1391249918174,469.3333333333333) translate(96.83950617283952 14.222222222222223)"/><use xlink:href="#n" transform="matrix(1,0,0,1,636.1391249918174,469.3333333333333) translate(136.2962962962963 14.222222222222223)"/><path d="M80 566a6 6 0 0 1 6-6h548a6 6 0 0 1 6 6v108a6 6 0 0 1-6 6H86a6 6 0 0 1-6-6z" stroke="#3a414a" fill="#ffdda6"/><path d="M100 578.33a6 6 0 0 1 6-6h508a6 6 0 0 1 6 6v83.34a6 6 0 0 1-6 6H106a6 6 0 0 1-6-6z" stroke="#000" stroke-opacity="0" fill="#fff" fill-opacity="0"/><g><use xlink:href="#g" transform="matrix(1,0,0,1,105,577.3333333333333) translate(0 16.90972222222222)"/><use xlink:href="#o" transform="matrix(1,0,0,1,105,577.3333333333333) translate(37.481481481481474 16.90972222222222)"/><use xlink:href="#p" transform="matrix(1,0,0,1,105,577.3333333333333) translate(60.14814814814814 16.90972222222222)"/><use xlink:href="#q" transform="matrix(1,0,0,1,105,577.3333333333333) translate(113.43209876543207 16.90972222222222)"/><use xlink:href="#r" transform="matrix(1,0,0,1,105,577.3333333333333) translate(0 38.24305555555556)"/><use xlink:href="#h" transform="matrix(1,0,0,1,105,577.3333333333333) translate(4.93827160493827 38.24305555555556)"/><use xlink:href="#s" transform="matrix(1,0,0,1,105,577.3333333333333) translate(28.54320987654321 38.24305555555556)"/><use xlink:href="#t" transform="matrix(1,0,0,1,105,577.3333333333333) translate(160.54320987654322 38.24305555555556)"/><use xlink:href="#q" transform="matrix(1,0,0,1,105,577.3333333333333) translate(308.8395061728395 38.24305555555556)"/><use xlink:href="#r" transform="matrix(1,0,0,1,105,577.3333333333333) translate(0 59.576388888888886)"/><use xlink:href="#u" transform="matrix(1,0,0,1,105,577.3333333333333) translate(4.93827160493827 59.576388888888886)"/><use xlink:href="#v" transform="matrix(1,0,0,1,105,577.3333333333333) translate(26.5679012345679 59.576388888888886)"/><use xlink:href="#w" transform="matrix(1,0,0,1,105,577.3333333333333) translate(97.72839506172838 59.576388888888886)"/><use xlink:href="#x" transform="matrix(1,0,0,1,105,577.3333333333333) translate(144.5432098765432 59.576388888888886)"/><use xlink:href="#y" transform="matrix(1,0,0,1,105,577.3333333333333) translate(190.96296296296293 59.576388888888886)"/><use xlink:href="#z" transform="matrix(1,0,0,1,105,577.3333333333333) translate(211.65432098765427 59.576388888888886)"/><use xlink:href="#A" transform="matrix(1,0,0,1,105,577.3333333333333) translate(265.43209876543204 59.576388888888886)"/><use xlink:href="#B" transform="matrix(1,0,0,1,105,577.3333333333333) translate(351.2098765432098 59.576388888888886)"/><use xlink:href="#q" transform="matrix(1,0,0,1,105,577.3333333333333) translate(414.56790123456784 59.576388888888886)"/><use xlink:href="#r" transform="matrix(1,0,0,1,105,577.3333333333333) translate(0 80.90972222222223)"/><use xlink:href="#C" transform="matrix(1,0,0,1,105,577.3333333333333) translate(4.93827160493827 80.90972222222223)"/><use xlink:href="#D" transform="matrix(1,0,0,1,105,577.3333333333333) translate(25.629629629629626 80.90972222222223)"/></g><path d="M1005.02 315l1 .24.93.4.87.52.78.67.66.77.53.87.38.94.24 1 .08 1v292.62l-.08 1-.24 1-.4.93-.52.87-.66.78-.78.66-.87.53-.94.38-.98.24-1 .08H641v-1h362.98l.88-.07.84-.2.8-.33.73-.45.66-.56.55-.67.45-.73.33-.8.2-.84.07-.88V321.44l-.07-.88-.2-.84-.33-.8-.45-.73-.56-.66-.67-.56-.73-.46-.8-.33-.84-.2-.88-.08h-69.03v-1h69.07z" stroke="#3a414a" stroke-width=".05" fill="#3a414a"/><path d="M641 620.5h-.5v-1h.5z" fill="#3a414a"/><path d="M641.04 620.52h-.56v-1.04h.56zm-.5-1v.96h.45v-.96z" stroke="#3a414a" stroke-width=".05" fill="#3a414a"/><path d="M934.45 320.06l-14.26-4.64 14.25-4.63z" fill="#3a414a"/><path d="M934.95 320.75l-16.38-5.33 16.38-5.32zm-13.15-5.33l12.15 3.95v-7.9z" stroke="#3a414a" stroke-width=".05" fill="#3a414a"/><g><use xlink:href="#E" transform="matrix(1,0,0,1,701.4320987654321,624) translate(0 14.222222222222223)"/><use xlink:href="#F" transform="matrix(1,0,0,1,701.4320987654321,624) translate(43.35802469135803 14.222222222222223)"/><use xlink:href="#G" transform="matrix(1,0,0,1,701.4320987654321,624) translate(58.17283950617285 14.222222222222223)"/><use xlink:href="#H" transform="matrix(1,0,0,1,701.4320987654321,624) translate(99.55555555555557 14.222222222222223)"/><use xlink:href="#I" transform="matrix(1,0,0,1,701.4320987654321,624) translate(136 14.222222222222223)"/><use xlink:href="#J" transform="matrix(1,0,0,1,701.4320987654321,624) translate(169.58024691358025 14.222222222222223)"/><use xlink:href="#K" transform="matrix(1,0,0,1,701.4320987654321,624) translate(195.20987654320987 14.222222222222223)"/><use xlink:href="#L" transform="matrix(1,0,0,1,701.4320987654321,624) translate(248.44444444444446 14.222222222222223)"/><use xlink:href="#M" transform="matrix(1,0,0,1,701.4320987654321,624) translate(0 35.55555555555556)"/><use xlink:href="#N" transform="matrix(1,0,0,1,701.4320987654321,624) translate(71.95061728395063 35.55555555555556)"/><use xlink:href="#O" transform="matrix(1,0,0,1,701.4320987654321,624) translate(86.76543209876544 35.55555555555556)"/><use xlink:href="#P" transform="matrix(1,0,0,1,701.4320987654321,624) translate(123.2098765432099 35.55555555555556)"/><use xlink:href="#Q" transform="matrix(1,0,0,1,701.4320987654321,624) translate(195.16049382716054 35.55555555555556)"/></g><path d="M900 84.33a6 6 0 0 1 6-6h368a6 6 0 0 1 6 6V174a6 6 0 0 1-6 6H906a6 6 0 0 1-6-6z" stroke="#000" stroke-opacity="0" fill="#fff0fb"/><g><use xlink:href="#R" transform="matrix(1,0,0,1,905,83.33333333333331) translate(0 16.07638888888889)"/><use xlink:href="#S" transform="matrix(1,0,0,1,905,83.33333333333331) translate(0 34.79993386243387)"/><use xlink:href="#T" transform="matrix(1,0,0,1,905,83.33333333333331) translate(34.13888888888889 34.79993386243387)"/><use xlink:href="#U" transform="matrix(1,0,0,1,905,83.33333333333331) translate(170.69444444444449 34.79993386243387)"/><use xlink:href="#S" transform="matrix(1,0,0,1,905,83.33333333333331) translate(0 53.52347883597885)"/><use xlink:href="#V" transform="matrix(1,0,0,1,905,83.33333333333331) translate(34.13888888888889 53.52347883597885)"/><use xlink:href="#W" transform="matrix(1,0,0,1,905,83.33333333333331) translate(153.62500000000006 53.52347883597885)"/><use xlink:href="#S" transform="matrix(1,0,0,1,905,83.33333333333331) translate(0 72.24702380952382)"/><use xlink:href="#X" transform="matrix(1,0,0,1,905,83.33333333333331) translate(34.13888888888889 72.24702380952382)"/><use xlink:href="#Y" transform="matrix(1,0,0,1,905,83.33333333333331) translate(179.2291666666667 72.24702380952382)"/><use xlink:href="#Z" transform="matrix(1,0,0,1,905,83.33333333333331) translate(0 90.9705687830688)"/></g><path d="M1090 180.5v43.3a6 6 0 0 1-6 6H897.5a6 6 0 0 0-6 6v27.4" stroke="#3a414a" fill="none"/><path d="M1090.5 180.5h-1v-.5h1z" stroke="#3a414a" stroke-width=".05" fill="#3a414a"/><path d="M891.5 277.97l-4.64-14.27h9.27z" stroke="#3a414a" fill="#3a414a"/><g><use xlink:href="#aa" transform="matrix(1,0,0,1,1016.1681253295944,232.97171455567297) translate(0 14.222222222222223)"/><use xlink:href="#ab" transform="matrix(1,0,0,1,1016.1681253295944,232.97171455567297) translate(65.08641975308643 14.222222222222223)"/><use xlink:href="#ac" transform="matrix(1,0,0,1,1016.1681253295944,232.97171455567297) translate(95.65432098765433 14.222222222222223)"/><use xlink:href="#ad" transform="matrix(1,0,0,1,1016.1681253295944,232.97171455567297) translate(124.19753086419755 14.222222222222223)"/><use xlink:href="#ae" transform="matrix(1,0,0,1,1016.1681253295944,232.97171455567297) translate(175.55555555555557 14.222222222222223)"/><use xlink:href="#af" transform="matrix(1,0,0,1,1016.1681253295944,232.97171455567297) translate(259.3580246913581 14.222222222222223)"/><use xlink:href="#ag" transform="matrix(1,0,0,1,1016.1681253295944,232.97171455567297) translate(0 35.55555555555556)"/><use xlink:href="#ah" transform="matrix(1,0,0,1,1016.1681253295944,232.97171455567297) translate(68.98765432098767 35.55555555555556)"/><use xlink:href="#ai" transform="matrix(1,0,0,1,1016.1681253295944,232.97171455567297) translate(97.53086419753089 35.55555555555556)"/><use xlink:href="#aj" transform="matrix(1,0,0,1,1016.1681253295944,232.97171455567297) translate(163.60493827160496 35.55555555555556)"/></g><defs><linearGradient gradientUnits="userSpaceOnUse" id="a" x1="859.99" y1="220" x2="859.99" y2="340"><stop offset="0%" stop-color="#b3b2b3"/><stop offset="37.5%" stop-color="#afaeaf"/><stop offset="76.3%" stop-color="#a2a2a2"/><stop offset="100%" stop-color="#979797"/></linearGradient><linearGradient gradientUnits="userSpaceOnUse" id="b" x1="859.99" y1="340" x2="859.99" y2="220.01"><stop offset="0%" stop-color="#0078d4"/><stop offset="15.6%" stop-color="#1380da"/><stop offset="52.8%" stop-color="#3c91e5"/><stop offset="82.2%" stop-color="#559cec"/><stop offset="100%" stop-color="#5ea0ef"/></linearGradient><path d="M185-189c-5-48-123-54-124 2 14 75 158 14 163 119 3 78-121 87-175 55-17-10-28-26-33-46l33-7c5 56 141 63 141-1 0-78-155-14-162-118-5-82 145-84 179-34 5 7 8 16 11 25" id="ak"/><path d="M100-194c63 0 86 42 84 106H49c0 40 14 67 53 68 26 1 43-12 49-29l28 8c-11 28-37 45-77 45C44 4 14-33 15-96c1-61 26-98 85-98zm52 81c6-60-76-77-97-28-3 7-6 17-6 28h103" id="al"/><path d="M114-163C36-179 61-72 57 0H25l-1-190h30c1 12-1 29 2 39 6-27 23-49 58-41v29" id="am"/><path d="M108 0H70L1-190h34L89-25l56-165h34" id="an"/><g id="c"><use transform="matrix(0.05,0,0,0.05,0,0)" xlink:href="#ak"/><use transform="matrix(0.05,0,0,0.05,12,0)" xlink:href="#al"/><use transform="matrix(0.05,0,0,0.05,22,0)" xlink:href="#am"/><use transform="matrix(0.05,0,0,0.05,27.950000000000003,0)" xlink:href="#an"/><use transform="matrix(0.05,0,0,0.05,36.95,0)" xlink:href="#al"/><use transform="matrix(0.05,0,0,0.05,46.95,0)" xlink:href="#am"/></g><path fill="#3a414a" d="M67-125c0 53 21 87 73 88 37 1 54-22 65-47l45 17C233-25 199 4 140 4 58 4 20-42 15-125 8-235 124-281 211-232c18 10 29 29 36 50l-46 12c-8-25-30-41-62-41-52 0-71 34-72 86" id="ao"/><path fill="#3a414a" d="M110-194c64 0 96 36 96 99 0 64-35 99-97 99-61 0-95-36-95-99 0-62 34-99 96-99zm-1 164c35 0 45-28 45-65 0-40-10-65-43-65-34 0-45 26-45 65 0 36 10 65 43 65" id="ap"/><path fill="#3a414a" d="M135-194c87-1 58 113 63 194h-50c-7-57 23-157-34-157-59 0-34 97-39 157H25l-1-190h47c2 12-1 28 3 38 12-26 28-41 61-42" id="aq"/><path fill="#3a414a" d="M137-138c1-29-70-34-71-4 15 46 118 7 119 86 1 83-164 76-172 9l43-7c4 19 20 25 44 25 33 8 57-30 24-41C81-84 22-81 20-136c-2-80 154-74 161-7" id="ar"/><path fill="#3a414a" d="M25 0v-261h50V0H25" id="as"/><path fill="#3a414a" d="M185-48c-13 30-37 53-82 52C43 2 14-33 14-96s30-98 90-98c62 0 83 45 84 108H66c0 31 8 55 39 56 18 0 30-7 34-22zm-45-69c5-46-57-63-70-21-2 6-4 13-4 21h74" id="at"/><g id="d"><use transform="matrix(0.06172839506172839,0,0,0.06172839506172839,0,0)" xlink:href="#ao"/><use transform="matrix(0.06172839506172839,0,0,0.06172839506172839,15.987654320987653,0)" xlink:href="#ap"/><use transform="matrix(0.06172839506172839,0,0,0.06172839506172839,29.50617283950617,0)" xlink:href="#aq"/><use transform="matrix(0.06172839506172839,0,0,0.06172839506172839,43.02469135802469,0)" xlink:href="#ar"/><use transform="matrix(0.06172839506172839,0,0,0.06172839506172839,55.37037037037037,0)" xlink:href="#ap"/><use transform="matrix(0.06172839506172839,0,0,0.06172839506172839,68.88888888888889,0)" xlink:href="#as"/><use transform="matrix(0.06172839506172839,0,0,0.06172839506172839,75.06172839506172,0)" xlink:href="#at"/></g><path fill="#3a414a" d="M23 0v-37h61v-169l-59 37v-38l62-41h46v211h57V0H23" id="au"/><use transform="matrix(0.06172839506172839,0,0,0.06172839506172839,0,0)" xlink:href="#au" id="e"/><path fill="#3a414a" d="M182-182c0 78-84 86-111 141h115V0H12c-6-101 99-100 120-180 1-22-12-31-33-32-23 0-32 14-35 34l-49-3c5-45 32-70 84-70 51 0 83 22 83 69" id="av"/><use transform="matrix(0.06172839506172839,0,0,0.06172839506172839,0,0)" xlink:href="#av" id="f"/><path fill="#3a414a" d="M190-63c-7 42-38 67-86 67-59 0-84-38-90-98-12-110 154-137 174-36l-49 2c-2-19-15-32-35-32-30 0-35 28-38 64-6 74 65 87 74 30" id="aw"/><path fill="#3a414a" d="M85 4C-2 5 27-109 22-190h50c7 57-23 150 33 157 60-5 35-97 40-157h50l1 190h-47c-2-12 1-28-3-38-12 25-28 42-61 42" id="ax"/><path fill="#3a414a" d="M135-150c-39-12-60 13-60 57V0H25l-1-190h47c2 13-1 29 3 40 6-28 27-53 61-41v41" id="ay"/><g id="g"><use transform="matrix(0.049382716049382706,0,0,0.049382716049382706,0,0)" xlink:href="#aw"/><use transform="matrix(0.049382716049382706,0,0,0.049382716049382706,9.87654320987654,0)" xlink:href="#ax"/><use transform="matrix(0.049382716049382706,0,0,0.049382716049382706,20.691358024691354,0)" xlink:href="#ay"/><use transform="matrix(0.049382716049382706,0,0,0.049382716049382706,27.604938271604933,0)" xlink:href="#as"/></g><path fill="#3a414a" d="M14-72v-43h91v43H14" id="az"/><path fill="#3a414a" d="M186 0v-106H76V0H24v-248h52v99h110v-99h50V0h-50" id="aA"/><g id="h"><use transform="matrix(0.049382716049382706,0,0,0.049382716049382706,0,0)" xlink:href="#az"/><use transform="matrix(0.049382716049382706,0,0,0.049382716049382706,5.876543209876542,0)" xlink:href="#aA"/></g><path fill="#3a414a" d="M199 0l-22-63H83L61 0H9l90-248h61L250 0h-51zm-33-102l-36-108c-10 38-24 72-36 108h72" id="aB"/><path fill="#3a414a" d="M135-194c53 0 70 44 70 98 0 56-19 98-73 100-31 1-45-17-59-34 3 33 2 69 2 105H25l-1-265h48c2 10 0 23 3 31 11-24 29-35 60-35zM114-30c33 0 39-31 40-66 0-38-9-64-40-64-56 0-55 130 0 130" id="aC"/><path fill="#3a414a" d="M115-3C79 11 28 4 28-45v-112H4v-33h27l15-45h31v45h36v33H77v99c-1 23 16 31 38 25v30" id="aD"/><path fill="#3a414a" d="M35-132v-50h50v50H35zM35 0v-49h50V0H35" id="aE"/><path fill="#3a414a" d="M144 0l-44-69L55 0H2l70-98-66-92h53l41 62 40-62h54l-67 91 71 99h-54" id="aF"/><path fill="#3a414a" d="M4 7l51-268h42L46 7H4" id="aG"/><path fill="#3a414a" d="M128 0H69L1-190h53L99-40l48-150h52" id="aH"/><path fill="#3a414a" d="M133-34C117-15 103 5 69 4 32 3 11-16 11-54c-1-60 55-63 116-61 1-26-3-47-28-47-18 1-26 9-28 27l-52-2c7-38 36-58 82-57s74 22 75 68l1 82c-1 14 12 18 25 15v27c-30 8-71 5-69-32zm-48 3c29 0 43-24 42-57-32 0-66-3-65 30 0 17 8 27 23 27" id="aI"/><path fill="#3a414a" d="M220-157c-53 9-28 100-34 157h-49v-107c1-27-5-49-29-50C55-147 81-57 75 0H25l-1-190h47c2 12-1 28 3 38 10-53 101-56 108 0 13-22 24-43 59-42 82 1 51 116 57 194h-49v-107c-1-25-5-48-29-50" id="aJ"/><g id="i"><use transform="matrix(0.049382716049382706,0,0,0.049382716049382706,0,0)" xlink:href="#aB"/><use transform="matrix(0.049382716049382706,0,0,0.049382716049382706,12.790123456790122,0)" xlink:href="#aw"/><use transform="matrix(0.049382716049382706,0,0,0.049382716049382706,22.666666666666664,0)" xlink:href="#aw"/><use transform="matrix(0.049382716049382706,0,0,0.049382716049382706,32.5432098765432,0)" xlink:href="#at"/><use transform="matrix(0.049382716049382706,0,0,0.049382716049382706,42.419753086419746,0)" xlink:href="#aC"/><use transform="matrix(0.049382716049382706,0,0,0.049382716049382706,53.234567901234556,0)" xlink:href="#aD"/><use transform="matrix(0.049382716049382706,0,0,0.049382716049382706,59.1111111111111,0)" xlink:href="#aE"/><use transform="matrix(0.049382716049382706,0,0,0.049382716049382706,64.98765432098764,0)" xlink:href="#aD"/><use transform="matrix(0.049382716049382706,0,0,0.049382716049382706,70.86419753086419,0)" xlink:href="#at"/><use transform="matrix(0.049382716049382706,0,0,0.049382716049382706,80.74074074074073,0)" xlink:href="#aF"/><use transform="matrix(0.049382716049382706,0,0,0.049382716049382706,90.61728395061728,0)" xlink:href="#aD"/><use transform="matrix(0.049382716049382706,0,0,0.049382716049382706,96.49382716049382,0)" xlink:href="#aG"/><use transform="matrix(0.049382716049382706,0,0,0.049382716049382706,101.43209876543207,0)" xlink:href="#at"/><use transform="matrix(0.049382716049382706,0,0,0.049382716049382706,111.30864197530865,0)" xlink:href="#aH"/><use transform="matrix(0.049382716049382706,0,0,0.049382716049382706,121.18518518518519,0)" xlink:href="#at"/><use transform="matrix(0.049382716049382706,0,0,0.049382716049382706,131.06172839506172,0)" xlink:href="#aq"/><use transform="matrix(0.049382716049382706,0,0,0.049382716049382706,141.87654320987653,0)" xlink:href="#aD"/><use transform="matrix(0.049382716049382706,0,0,0.049382716049382706,147.75308641975306,0)" xlink:href="#az"/><use transform="matrix(0.049382716049382706,0,0,0.049382716049382706,153.6296296296296,0)" xlink:href="#ar"/><use transform="matrix(0.049382716049382706,0,0,0.049382716049382706,163.50617283950612,0)" xlink:href="#aD"/><use transform="matrix(0.049382716049382706,0,0,0.049382716049382706,169.38271604938265,0)" xlink:href="#ay"/><use transform="matrix(0.049382716049382706,0,0,0.049382716049382706,176.29629629629622,0)" xlink:href="#at"/><use transform="matrix(0.049382716049382706,0,0,0.049382716049382706,186.17283950617275,0)" xlink:href="#aI"/><use transform="matrix(0.049382716049382706,0,0,0.049382716049382706,196.04938271604928,0)" xlink:href="#aJ"/></g><path fill="#3a414a" d="M114-157C55-157 80-60 75 0H25v-261h50l-1 109c12-26 28-41 61-42 86-1 58 113 63 194h-50c-7-57 23-157-34-157" id="aK"/><path fill="#3a414a" d="M128-127c34 4 56 21 59 58 7 91-148 94-172 28-4-9-6-17-7-26l51-5c1 24 16 35 40 36 23 0 39-12 38-36-1-31-31-36-65-34v-40c32 2 59-3 59-33 0-20-13-33-34-33s-33 13-35 32l-50-3c6-44 37-68 86-68 50 0 83 20 83 66 0 35-22 52-53 58" id="aL"/><path fill="#3a414a" d="M101-251c68 0 84 54 84 127C185-50 166 4 99 4S15-52 14-124c-1-75 17-127 87-127zm-1 216c37-5 36-46 36-89s4-89-36-89c-39 0-36 45-36 89 0 43-3 85 36 89" id="aM"/><g id="j"><use transform="matrix(0.049382716049382706,0,0,0.049382716049382706,0,0)" xlink:href="#aK"/><use transform="matrix(0.049382716049382706,0,0,0.049382716049382706,10.814814814814813,0)" xlink:href="#aD"/><use transform="matrix(0.049382716049382706,0,0,0.049382716049382706,16.691358024691354,0)" xlink:href="#aD"/><use transform="matrix(0.049382716049382706,0,0,0.049382716049382706,22.567901234567895,0)" xlink:href="#aC"/><use transform="matrix(0.049382716049382706,0,0,0.049382716049382706,33.38271604938271,0)" xlink:href="#aE"/><use transform="matrix(0.049382716049382706,0,0,0.049382716049382706,39.25925925925925,0)" xlink:href="#aG"/><use transform="matrix(0.049382716049382706,0,0,0.049382716049382706,44.197530864197525,0)" xlink:href="#aG"/><use transform="matrix(0.049382716049382706,0,0,0.049382716049382706,49.1358024691358,0)" xlink:href="#as"/><use transform="matrix(0.049382716049382706,0,0,0.049382716049382706,54.07407407407406,0)" xlink:href="#ap"/><use transform="matrix(0.049382716049382706,0,0,0.049382716049382706,64.88888888888889,0)" xlink:href="#aw"/><use transform="matrix(0.049382716049382706,0,0,0.049382716049382706,74.76543209876543,0)" xlink:href="#aI"/><use transform="matrix(0.049382716049382706,0,0,0.049382716049382706,84.64197530864197,0)" xlink:href="#as"/><use transform="matrix(0.049382716049382706,0,0,0.049382716049382706,89.58024691358024,0)" xlink:href="#aK"/><use transform="matrix(0.049382716049382706,0,0,0.049382716049382706,100.39506172839505,0)" xlink:href="#ap"/><use transform="matrix(0.049382716049382706,0,0,0.049382716049382706,111.20987654320986,0)" xlink:href="#ar"/><use transform="matrix(0.049382716049382706,0,0,0.049382716049382706,121.08641975308639,0)" xlink:href="#aD"/><use transform="matrix(0.049382716049382706,0,0,0.049382716049382706,126.96296296296293,0)" xlink:href="#aE"/><use transform="matrix(0.049382716049382706,0,0,0.049382716049382706,132.8395061728395,0)" xlink:href="#aL"/><use transform="matrix(0.049382716049382706,0,0,0.049382716049382706,142.71604938271602,0)" xlink:href="#aM"/><use transform="matrix(0.049382716049382706,0,0,0.049382716049382706,152.59259259259255,0)" xlink:href="#aM"/><use transform="matrix(0.049382716049382706,0,0,0.049382716049382706,162.46913580246908,0)" xlink:href="#aM"/><use transform="matrix(0.049382716049382706,0,0,0.049382716049382706,172.3456790123456,0)" xlink:href="#aG"/><use transform="matrix(0.049382716049382706,0,0,0.049382716049382706,177.2839506172839,0)" xlink:href="#at"/><use transform="matrix(0.049382716049382706,0,0,0.049382716049382706,187.16049382716042,0)" xlink:href="#aH"/><use transform="matrix(0.049382716049382706,0,0,0.049382716049382706,197.03703703703695,0)" xlink:href="#at"/><use transform="matrix(0.049382716049382706,0,0,0.049382716049382706,206.91358024691348,0)" xlink:href="#aq"/><use transform="matrix(0.049382716049382706,0,0,0.049382716049382706,217.72839506172832,0)" xlink:href="#aD"/><use transform="matrix(0.049382716049382706,0,0,0.049382716049382706,223.6049382716048,0)" xlink:href="#ar"/></g><path fill="#333" d="M275 0h-61l-44-196L126 0H64L0-248h53L97-49l45-199h58l43 199 44-199h52" id="aN"/><path fill="#333" d="M133-34C117-15 103 5 69 4 32 3 11-16 11-54c-1-60 55-63 116-61 1-26-3-47-28-47-18 1-26 9-28 27l-52-2c7-38 36-58 82-57s74 22 75 68l1 82c-1 14 12 18 25 15v27c-30 8-71 5-69-32zm-48 3c29 0 43-24 42-57-32 0-66-3-65 30 0 17 8 27 23 27" id="aO"/><path fill="#333" d="M25-224v-37h50v37H25zM25 0v-190h50V0H25" id="aP"/><path fill="#333" d="M115-3C79 11 28 4 28-45v-112H4v-33h27l15-45h31v45h36v33H77v99c-1 23 16 31 38 25v30" id="aQ"/><path fill="#333" d="M135-194c87-1 58 113 63 194h-50c-7-57 23-157-34-157-59 0-34 97-39 157H25l-1-190h47c2 12-1 28 3 38 12-26 28-41 61-42" id="aR"/><path fill="#333" d="M195-6C206 82 75 100 31 46c-4-6-6-13-8-21l49-6c3 16 16 24 34 25 40 0 42-37 40-79-11 22-30 35-61 35-53 0-70-43-70-97 0-56 18-96 73-97 30 0 46 14 59 34l2-30h47zm-90-29c32 0 41-27 41-63 0-35-9-62-40-62-32 0-39 29-40 63 0 36 9 62 39 62" id="aS"/><g id="k"><use transform="matrix(0.04938271604938272,0,0,0.04938271604938272,0,0)" xlink:href="#aN"/><use transform="matrix(0.04938271604938272,0,0,0.04938271604938272,16.098765432098766,0)" xlink:href="#aO"/><use transform="matrix(0.04938271604938272,0,0,0.04938271604938272,25.97530864197531,0)" xlink:href="#aP"/><use transform="matrix(0.04938271604938272,0,0,0.04938271604938272,30.913580246913583,0)" xlink:href="#aQ"/><use transform="matrix(0.04938271604938272,0,0,0.04938271604938272,36.79012345679013,0)" xlink:href="#aP"/><use transform="matrix(0.04938271604938272,0,0,0.04938271604938272,41.7283950617284,0)" xlink:href="#aR"/><use transform="matrix(0.04938271604938272,0,0,0.04938271604938272,52.543209876543216,0)" xlink:href="#aS"/></g><path fill="#333" d="M121-226c-27-7-43 5-38 36h38v33H83V0H34v-157H6v-33h28c-9-59 32-81 87-68v32" id="aT"/><path fill="#333" d="M110-194c64 0 96 36 96 99 0 64-35 99-97 99-61 0-95-36-95-99 0-62 34-99 96-99zm-1 164c35 0 45-28 45-65 0-40-10-65-43-65-34 0-45 26-45 65 0 36 10 65 43 65" id="aU"/><path fill="#333" d="M135-150c-39-12-60 13-60 57V0H25l-1-190h47c2 13-1 29 3 40 6-28 27-53 61-41v41" id="aV"/><g id="l"><use transform="matrix(0.04938271604938272,0,0,0.04938271604938272,0,0)" xlink:href="#aT"/><use transform="matrix(0.04938271604938272,0,0,0.04938271604938272,5.8765432098765435,0)" xlink:href="#aU"/><use transform="matrix(0.04938271604938272,0,0,0.04938271604938272,16.691358024691358,0)" xlink:href="#aV"/></g><path fill="#333" d="M185-48c-13 30-37 53-82 52C43 2 14-33 14-96s30-98 90-98c62 0 83 45 84 108H66c0 31 8 55 39 56 18 0 30-7 34-22zm-45-69c5-46-57-63-70-21-2 6-4 13-4 21h74" id="aW"/><path fill="#333" d="M231 0h-52l-39-155L100 0H48L-1-190h46L77-45c9-52 24-97 36-145h53l37 145 32-145h46" id="aX"/><g id="m"><use transform="matrix(0.04938271604938272,0,0,0.04938271604938272,0,0)" xlink:href="#aR"/><use transform="matrix(0.04938271604938272,0,0,0.04938271604938272,10.814814814814815,0)" xlink:href="#aW"/><use transform="matrix(0.04938271604938272,0,0,0.04938271604938272,20.69135802469136,0)" xlink:href="#aX"/></g><path fill="#333" d="M128 0H69L1-190h53L99-40l48-150h52" id="aY"/><path fill="#333" d="M137-138c1-29-70-34-71-4 15 46 118 7 119 86 1 83-164 76-172 9l43-7c4 19 20 25 44 25 33 8 57-30 24-41C81-84 22-81 20-136c-2-80 154-74 161-7" id="aZ"/><g id="n"><use transform="matrix(0.04938271604938272,0,0,0.04938271604938272,0,0)" xlink:href="#aW"/><use transform="matrix(0.04938271604938272,0,0,0.04938271604938272,9.876543209876544,0)" xlink:href="#aY"/><use transform="matrix(0.04938271604938272,0,0,0.04938271604938272,19.75308641975309,0)" xlink:href="#aW"/><use transform="matrix(0.04938271604938272,0,0,0.04938271604938272,29.629629629629633,0)" xlink:href="#aR"/><use transform="matrix(0.04938271604938272,0,0,0.04938271604938272,40.44444444444445,0)" xlink:href="#aQ"/><use transform="matrix(0.04938271604938272,0,0,0.04938271604938272,46.320987654320994,0)" xlink:href="#aZ"/></g><path fill="#3a414a" d="M182 0l-62-99L58 0H3l86-130-79-118h55l55 88 55-88h55l-75 118L237 0h-55" id="ba"/><g id="o"><use transform="matrix(0.049382716049382706,0,0,0.049382716049382706,0,0)" xlink:href="#az"/><use transform="matrix(0.049382716049382706,0,0,0.049382716049382706,5.876543209876542,0)" xlink:href="#ba"/></g><path fill="#3a414a" d="M24-248c93 1 206-16 204 79-1 75-69 88-152 82V0H24v-248zm52 121c47 0 100 7 100-41 0-47-54-39-100-39v80" id="bb"/><path fill="#3a414a" d="M140-251c80 0 125 45 125 126S219 4 139 4C58 4 15-44 15-125s44-126 125-126zm-1 214c52 0 73-35 73-88 0-50-21-86-72-86-52 0-73 35-73 86s22 88 72 88" id="bc"/><path fill="#3a414a" d="M169-182c-1-43-94-46-97-3 18 66 151 10 154 114 3 95-165 93-204 36-6-8-10-19-12-30l50-8c3 46 112 56 116 5-17-69-150-10-154-114-4-87 153-88 188-35 5 8 8 18 10 28" id="bd"/><path fill="#3a414a" d="M136-208V0H84v-208H4v-40h212v40h-80" id="be"/><g id="p"><use transform="matrix(0.049382716049382706,0,0,0.049382716049382706,0,0)" xlink:href="#bb"/><use transform="matrix(0.049382716049382706,0,0,0.049382716049382706,11.85185185185185,0)" xlink:href="#bc"/><use transform="matrix(0.049382716049382706,0,0,0.049382716049382706,25.679012345679006,0)" xlink:href="#bd"/><use transform="matrix(0.049382716049382706,0,0,0.049382716049382706,37.53086419753085,0)" xlink:href="#be"/></g><path fill="#3a414a" d="M54 7L4-261h42L97 7H54" id="bf"/><use transform="matrix(0.049382716049382706,0,0,0.049382716049382706,0,0)" xlink:href="#bf" id="q"/><path fill="#3a414a" d="M142-158h-39l-4-90h48zm-75 0H28l-4-90h48" id="bg"/><path fill="#3a414a" d="M123 10C108 53 80 86 19 72V37c35 8 53-11 59-39L3-190h52l48 148c12-52 28-100 44-148h51" id="bh"/><g id="s"><use transform="matrix(0.049382716049382706,0,0,0.049382716049382706,0,0)" xlink:href="#bg"/><use transform="matrix(0.049382716049382706,0,0,0.049382716049382706,8.39506172839506,0)" xlink:href="#ao"/><use transform="matrix(0.049382716049382706,0,0,0.049382716049382706,21.185185185185183,0)" xlink:href="#ap"/><use transform="matrix(0.049382716049382706,0,0,0.049382716049382706,31.999999999999993,0)" xlink:href="#aq"/><use transform="matrix(0.049382716049382706,0,0,0.049382716049382706,42.81481481481481,0)" xlink:href="#aD"/><use transform="matrix(0.049382716049382706,0,0,0.049382716049382706,48.691358024691354,0)" xlink:href="#at"/><use transform="matrix(0.049382716049382706,0,0,0.049382716049382706,58.5679012345679,0)" xlink:href="#aq"/><use transform="matrix(0.049382716049382706,0,0,0.049382716049382706,69.38271604938271,0)" xlink:href="#aD"/><use transform="matrix(0.049382716049382706,0,0,0.049382716049382706,75.25925925925925,0)" xlink:href="#az"/><use transform="matrix(0.049382716049382706,0,0,0.049382716049382706,81.1358024691358,0)" xlink:href="#be"/><use transform="matrix(0.049382716049382706,0,0,0.049382716049382706,90.61728395061728,0)" xlink:href="#bh"/><use transform="matrix(0.049382716049382706,0,0,0.049382716049382706,100.49382716049382,0)" xlink:href="#aC"/><use transform="matrix(0.049382716049382706,0,0,0.049382716049382706,111.30864197530865,0)" xlink:href="#at"/><use transform="matrix(0.049382716049382706,0,0,0.049382716049382706,121.18518518518519,0)" xlink:href="#aE"/></g><path fill="#3a414a" d="M25-224v-37h50v37H25zM25 0v-190h50V0H25" id="bi"/><path fill="#3a414a" d="M25-224v-37h50v37H25zM75 22c2 45-34 59-81 51V38c22 5 31-5 31-27v-201h50V22" id="bj"/><g id="t"><use transform="matrix(0.049382716049382706,0,0,0.049382716049382706,0,0)" xlink:href="#aI"/><use transform="matrix(0.049382716049382706,0,0,0.049382716049382706,9.87654320987654,0)" xlink:href="#aC"/><use transform="matrix(0.049382716049382706,0,0,0.049382716049382706,20.691358024691354,0)" xlink:href="#aC"/><use transform="matrix(0.049382716049382706,0,0,0.049382716049382706,31.506172839506167,0)" xlink:href="#as"/><use transform="matrix(0.049382716049382706,0,0,0.049382716049382706,36.444444444444436,0)" xlink:href="#bi"/><use transform="matrix(0.049382716049382706,0,0,0.049382716049382706,41.38271604938271,0)" xlink:href="#aw"/><use transform="matrix(0.049382716049382706,0,0,0.049382716049382706,51.25925925925925,0)" xlink:href="#aI"/><use transform="matrix(0.049382716049382706,0,0,0.049382716049382706,61.135802469135804,0)" xlink:href="#aD"/><use transform="matrix(0.049382716049382706,0,0,0.049382716049382706,67.01234567901234,0)" xlink:href="#bi"/><use transform="matrix(0.049382716049382706,0,0,0.049382716049382706,71.9506172839506,0)" xlink:href="#ap"/><use transform="matrix(0.049382716049382706,0,0,0.049382716049382706,82.76543209876542,0)" xlink:href="#aq"/><use transform="matrix(0.049382716049382706,0,0,0.049382716049382706,93.58024691358023,0)" xlink:href="#aG"/><use transform="matrix(0.049382716049382706,0,0,0.049382716049382706,98.51851851851849,0)" xlink:href="#bj"/><use transform="matrix(0.049382716049382706,0,0,0.049382716049382706,103.45679012345674,0)" xlink:href="#ar"/><use transform="matrix(0.049382716049382706,0,0,0.049382716049382706,113.33333333333331,0)" xlink:href="#ap"/><use transform="matrix(0.049382716049382706,0,0,0.049382716049382706,124.1481481481481,0)" xlink:href="#aq"/><use transform="matrix(0.049382716049382706,0,0,0.049382716049382706,134.96296296296293,0)" xlink:href="#bg"/></g><path fill="#3a414a" d="M88-194c31-1 46 15 58 34l-1-101h50l1 261h-48c-2-10 0-23-3-31C134-8 116 4 84 4 32 4 16-41 15-95c0-56 19-97 73-99zm17 164c33 0 40-30 41-66 1-37-9-64-41-64s-38 30-39 65c0 43 13 65 39 65" id="bk"/><g id="u"><use transform="matrix(0.049382716049382706,0,0,0.049382716049382706,0,0)" xlink:href="#az"/><use transform="matrix(0.049382716049382706,0,0,0.049382716049382706,5.876543209876542,0)" xlink:href="#bk"/></g><path fill="#3a414a" d="M62-158H24l-5-90h48" id="bl"/><path fill="#3a414a" d="M133 41v34c-50 4-88-6-87-53 0-46 9-101-40-98v-34c48 2 40-52 40-98-1-47 37-57 87-53v34c-79-14-6 124-77 134 73 11-4 147 77 134" id="bm"/><path fill="#3a414a" d="M121-226c-27-7-43 5-38 36h38v33H83V0H34v-157H6v-33h28c-9-59 32-81 87-68v32" id="bn"/><g id="v"><use transform="matrix(0.049382716049382706,0,0,0.049382716049382706,0,0)" xlink:href="#bl"/><use transform="matrix(0.049382716049382706,0,0,0.049382716049382706,4.19753086419753,0)" xlink:href="#bm"/><use transform="matrix(0.049382716049382706,0,0,0.049382716049382706,11.111111111111109,0)" xlink:href="#bg"/><use transform="matrix(0.049382716049382706,0,0,0.049382716049382706,19.50617283950617,0)" xlink:href="#bi"/><use transform="matrix(0.049382716049382706,0,0,0.049382716049382706,24.444444444444443,0)" xlink:href="#aq"/><use transform="matrix(0.049382716049382706,0,0,0.049382716049382706,35.25925925925925,0)" xlink:href="#bn"/><use transform="matrix(0.049382716049382706,0,0,0.049382716049382706,41.1358024691358,0)" xlink:href="#ap"/><use transform="matrix(0.049382716049382706,0,0,0.049382716049382706,51.950617283950606,0)" xlink:href="#bg"/><use transform="matrix(0.049382716049382706,0,0,0.049382716049382706,60.34567901234567,0)" xlink:href="#aE"/></g><g id="w"><use transform="matrix(0.049382716049382706,0,0,0.049382716049382706,0,0)" xlink:href="#bg"/><use transform="matrix(0.049382716049382706,0,0,0.049382716049382706,8.39506172839506,0)" xlink:href="#bd"/><use transform="matrix(0.049382716049382706,0,0,0.049382716049382706,20.24691358024691,0)" xlink:href="#ax"/><use transform="matrix(0.049382716049382706,0,0,0.049382716049382706,31.06172839506172,0)" xlink:href="#aq"/></g><g id="x"><use transform="matrix(0.049382716049382706,0,0,0.049382716049382706,0,0)" xlink:href="#ay"/><use transform="matrix(0.049382716049382706,0,0,0.049382716049382706,6.913580246913579,0)" xlink:href="#bi"/><use transform="matrix(0.049382716049382706,0,0,0.049382716049382706,11.85185185185185,0)" xlink:href="#ar"/><use transform="matrix(0.049382716049382706,0,0,0.049382716049382706,21.728395061728392,0)" xlink:href="#at"/><use transform="matrix(0.049382716049382706,0,0,0.049382716049382706,31.604938271604933,0)" xlink:href="#ar"/></g><g id="y"><use transform="matrix(0.049382716049382706,0,0,0.049382716049382706,0,0)" xlink:href="#bi"/><use transform="matrix(0.049382716049382706,0,0,0.049382716049382706,4.93827160493827,0)" xlink:href="#aq"/></g><path fill="#3a414a" d="M76-54c-1 42 2 86-19 110H24C36 42 46 24 48 0H25v-54h51" id="bo"/><g id="z"><use transform="matrix(0.049382716049382706,0,0,0.049382716049382706,0,0)" xlink:href="#at"/><use transform="matrix(0.049382716049382706,0,0,0.049382716049382706,9.87654320987654,0)" xlink:href="#aI"/><use transform="matrix(0.049382716049382706,0,0,0.049382716049382706,19.75308641975308,0)" xlink:href="#ar"/><use transform="matrix(0.049382716049382706,0,0,0.049382716049382706,29.629629629629623,0)" xlink:href="#aD"/><use transform="matrix(0.049382716049382706,0,0,0.049382716049382706,35.50617283950616,0)" xlink:href="#bg"/><use transform="matrix(0.049382716049382706,0,0,0.049382716049382706,43.90123456790123,0)" xlink:href="#bo"/></g><g id="A"><use transform="matrix(0.049382716049382706,0,0,0.049382716049382706,0,0)" xlink:href="#bg"/><use transform="matrix(0.049382716049382706,0,0,0.049382716049382706,8.39506172839506,0)" xlink:href="#ar"/><use transform="matrix(0.049382716049382706,0,0,0.049382716049382706,18.2716049382716,0)" xlink:href="#ap"/><use transform="matrix(0.049382716049382706,0,0,0.049382716049382706,29.086419753086414,0)" xlink:href="#ax"/><use transform="matrix(0.049382716049382706,0,0,0.049382716049382706,39.90123456790123,0)" xlink:href="#ay"/><use transform="matrix(0.049382716049382706,0,0,0.049382716049382706,46.81481481481481,0)" xlink:href="#aw"/><use transform="matrix(0.049382716049382706,0,0,0.049382716049382706,56.69135802469136,0)" xlink:href="#at"/><use transform="matrix(0.049382716049382706,0,0,0.049382716049382706,66.5679012345679,0)" xlink:href="#bg"/><use transform="matrix(0.049382716049382706,0,0,0.049382716049382706,74.96296296296296,0)" xlink:href="#aE"/></g><path fill="#3a414a" d="M175 0L67-191c6 58 2 128 3 191H24v-248h59L193-55c-6-58-2-129-3-193h46V0h-61" id="bp"/><path fill="#3a414a" d="M24 0v-54h51V0H24" id="bq"/><path fill="#3a414a" d="M94-36c2 56 4 113-52 111H8V41C85 54 13-83 84-94c-39-5-38-51-36-97 1-27-12-38-40-36v-34c49-4 87 6 86 53s-8 101 41 98v34c-26 1-42 13-41 40" id="br"/><g id="B"><use transform="matrix(0.049382716049382706,0,0,0.049382716049382706,0,0)" xlink:href="#bg"/><use transform="matrix(0.049382716049382706,0,0,0.049382716049382706,8.39506172839506,0)" xlink:href="#bp"/><use transform="matrix(0.049382716049382706,0,0,0.049382716049382706,21.185185185185183,0)" xlink:href="#bq"/><use transform="matrix(0.049382716049382706,0,0,0.049382716049382706,26.123456790123456,0)" xlink:href="#aB"/><use transform="matrix(0.049382716049382706,0,0,0.049382716049382706,38.913580246913575,0)" xlink:href="#bg"/><use transform="matrix(0.049382716049382706,0,0,0.049382716049382706,47.30864197530863,0)" xlink:href="#br"/><use transform="matrix(0.049382716049382706,0,0,0.049382716049382706,54.222222222222214,0)" xlink:href="#bl"/></g><g id="C"><use transform="matrix(0.049382716049382706,0,0,0.049382716049382706,0,0)" xlink:href="#az"/><use transform="matrix(0.049382716049382706,0,0,0.049382716049382706,5.876543209876542,0)" xlink:href="#ar"/></g><g id="D"><use transform="matrix(0.049382716049382706,0,0,0.049382716049382706,0,0)" xlink:href="#aK"/><use transform="matrix(0.049382716049382706,0,0,0.049382716049382706,10.814814814814813,0)" xlink:href="#aD"/><use transform="matrix(0.049382716049382706,0,0,0.049382716049382706,16.691358024691354,0)" xlink:href="#aD"/><use transform="matrix(0.049382716049382706,0,0,0.049382716049382706,22.567901234567895,0)" xlink:href="#aC"/><use transform="matrix(0.049382716049382706,0,0,0.049382716049382706,33.38271604938271,0)" xlink:href="#aE"/><use transform="matrix(0.049382716049382706,0,0,0.049382716049382706,39.25925925925925,0)" xlink:href="#aG"/><use transform="matrix(0.049382716049382706,0,0,0.049382716049382706,44.197530864197525,0)" xlink:href="#aG"/><use transform="matrix(0.049382716049382706,0,0,0.049382716049382706,49.1358024691358,0)" xlink:href="#as"/><use transform="matrix(0.049382716049382706,0,0,0.049382716049382706,54.07407407407406,0)" xlink:href="#ap"/><use transform="matrix(0.049382716049382706,0,0,0.049382716049382706,64.88888888888889,0)" xlink:href="#aw"/><use transform="matrix(0.049382716049382706,0,0,0.049382716049382706,74.76543209876543,0)" xlink:href="#aI"/><use transform="matrix(0.049382716049382706,0,0,0.049382716049382706,84.64197530864197,0)" xlink:href="#as"/><use transform="matrix(0.049382716049382706,0,0,0.049382716049382706,89.58024691358024,0)" xlink:href="#aK"/><use transform="matrix(0.049382716049382706,0,0,0.049382716049382706,100.39506172839505,0)" xlink:href="#ap"/><use transform="matrix(0.049382716049382706,0,0,0.049382716049382706,111.20987654320986,0)" xlink:href="#ar"/><use transform="matrix(0.049382716049382706,0,0,0.049382716049382706,121.08641975308639,0)" xlink:href="#aD"/><use transform="matrix(0.049382716049382706,0,0,0.049382716049382706,126.96296296296293,0)" xlink:href="#aE"/><use transform="matrix(0.049382716049382706,0,0,0.049382716049382706,132.8395061728395,0)" xlink:href="#aL"/><use transform="matrix(0.049382716049382706,0,0,0.049382716049382706,142.71604938271602,0)" xlink:href="#aM"/><use transform="matrix(0.049382716049382706,0,0,0.049382716049382706,152.59259259259255,0)" xlink:href="#aM"/><use transform="matrix(0.049382716049382706,0,0,0.049382716049382706,162.46913580246908,0)" xlink:href="#aM"/><use transform="matrix(0.049382716049382706,0,0,0.049382716049382706,172.3456790123456,0)" xlink:href="#aG"/><use transform="matrix(0.049382716049382706,0,0,0.049382716049382706,177.2839506172839,0)" xlink:href="#bn"/><use transform="matrix(0.049382716049382706,0,0,0.049382716049382706,183.16049382716042,0)" xlink:href="#aI"/><use transform="matrix(0.049382716049382706,0,0,0.049382716049382706,193.03703703703695,0)" xlink:href="#aw"/><use transform="matrix(0.049382716049382706,0,0,0.049382716049382706,202.91358024691348,0)" xlink:href="#aD"/><use transform="matrix(0.049382716049382706,0,0,0.049382716049382706,208.79012345678998,0)" xlink:href="#ar"/></g><path fill="#333" d="M24-248c93 1 206-16 204 79-1 75-69 88-152 82V0H24v-248zm52 121c47 0 100 7 100-41 0-47-54-39-100-39v80" id="bs"/><g id="E"><use transform="matrix(0.04938271604938272,0,0,0.04938271604938272,0,0)" xlink:href="#bs"/><use transform="matrix(0.04938271604938272,0,0,0.04938271604938272,11.851851851851853,0)" xlink:href="#aU"/><use transform="matrix(0.04938271604938272,0,0,0.04938271604938272,22.666666666666668,0)" xlink:href="#aZ"/><use transform="matrix(0.04938271604938272,0,0,0.04938271604938272,32.543209876543216,0)" xlink:href="#aQ"/></g><use transform="matrix(0.04938271604938272,0,0,0.04938271604938272,0,0)" xlink:href="#aO" id="F"/><path fill="#333" d="M190-63c-7 42-38 67-86 67-59 0-84-38-90-98-12-110 154-137 174-36l-49 2c-2-19-15-32-35-32-30 0-35 28-38 64-6 74 65 87 74 30" id="bt"/><path fill="#333" d="M76-54c-1 42 2 86-19 110H24C36 42 46 24 48 0H25v-54h51" id="bu"/><g id="G"><use transform="matrix(0.04938271604938272,0,0,0.04938271604938272,0,0)" xlink:href="#aT"/><use transform="matrix(0.04938271604938272,0,0,0.04938271604938272,5.8765432098765435,0)" xlink:href="#aO"/><use transform="matrix(0.04938271604938272,0,0,0.04938271604938272,15.753086419753087,0)" xlink:href="#bt"/><use transform="matrix(0.04938271604938272,0,0,0.04938271604938272,25.629629629629633,0)" xlink:href="#aQ"/><use transform="matrix(0.04938271604938272,0,0,0.04938271604938272,31.506172839506174,0)" xlink:href="#bu"/></g><path fill="#333" d="M114-157C55-157 80-60 75 0H25v-261h50l-1 109c12-26 28-41 61-42 86-1 58 113 63 194h-50c-7-57 23-157-34-157" id="bv"/><g id="H"><use transform="matrix(0.04938271604938272,0,0,0.04938271604938272,0,0)" xlink:href="#aQ"/><use transform="matrix(0.04938271604938272,0,0,0.04938271604938272,5.8765432098765435,0)" xlink:href="#bv"/><use transform="matrix(0.04938271604938272,0,0,0.04938271604938272,16.691358024691358,0)" xlink:href="#aP"/><use transform="matrix(0.04938271604938272,0,0,0.04938271604938272,21.62962962962963,0)" xlink:href="#aZ"/></g><path fill="#333" d="M25 0v-261h50V0H25" id="bw"/><g id="I"><use transform="matrix(0.04938271604938272,0,0,0.04938271604938272,0,0)" xlink:href="#aX"/><use transform="matrix(0.04938271604938272,0,0,0.04938271604938272,13.827160493827162,0)" xlink:href="#aP"/><use transform="matrix(0.04938271604938272,0,0,0.04938271604938272,18.765432098765434,0)" xlink:href="#bw"/><use transform="matrix(0.04938271604938272,0,0,0.04938271604938272,23.703703703703706,0)" xlink:href="#bw"/></g><path fill="#333" d="M135-194c52 0 70 43 70 98 0 56-19 99-73 100-30 1-46-15-58-35L72 0H24l1-261h50v104c11-23 29-37 60-37zM114-30c31 0 40-27 40-66 0-37-7-63-39-63s-41 28-41 65c0 36 8 64 40 64" id="bx"/><g id="J"><use transform="matrix(0.04938271604938272,0,0,0.04938271604938272,0,0)" xlink:href="#bx"/><use transform="matrix(0.04938271604938272,0,0,0.04938271604938272,10.814814814814815,0)" xlink:href="#aW"/></g><path fill="#333" d="M88-194c31-1 46 15 58 34l-1-101h50l1 261h-48c-2-10 0-23-3-31C134-8 116 4 84 4 32 4 16-41 15-95c0-56 19-97 73-99zm17 164c33 0 40-30 41-66 1-37-9-64-41-64s-38 30-39 65c0 43 13 65 39 65" id="by"/><g id="K"><use transform="matrix(0.04938271604938272,0,0,0.04938271604938272,0,0)" xlink:href="#bv"/><use transform="matrix(0.04938271604938272,0,0,0.04938271604938272,10.814814814814815,0)" xlink:href="#aW"/><use transform="matrix(0.04938271604938272,0,0,0.04938271604938272,20.69135802469136,0)" xlink:href="#aO"/><use transform="matrix(0.04938271604938272,0,0,0.04938271604938272,30.567901234567906,0)" xlink:href="#aV"/><use transform="matrix(0.04938271604938272,0,0,0.04938271604938272,37.48148148148149,0)" xlink:href="#by"/></g><path fill="#333" d="M123 10C108 53 80 86 19 72V37c35 8 53-11 59-39L3-190h52l48 148c12-52 28-100 44-148h51" id="bz"/><g id="L"><use transform="matrix(0.04938271604938272,0,0,0.04938271604938272,0,0)" xlink:href="#bx"/><use transform="matrix(0.04938271604938272,0,0,0.04938271604938272,10.814814814814815,0)" xlink:href="#bz"/></g><g id="M"><use transform="matrix(0.04938271604938272,0,0,0.04938271604938272,0,0)" xlink:href="#bt"/><use transform="matrix(0.04938271604938272,0,0,0.04938271604938272,9.876543209876544,0)" xlink:href="#aU"/><use transform="matrix(0.04938271604938272,0,0,0.04938271604938272,20.69135802469136,0)" xlink:href="#aR"/><use transform="matrix(0.04938271604938272,0,0,0.04938271604938272,31.506172839506174,0)" xlink:href="#aZ"/><use transform="matrix(0.04938271604938272,0,0,0.04938271604938272,41.38271604938272,0)" xlink:href="#aU"/><use transform="matrix(0.04938271604938272,0,0,0.04938271604938272,52.19753086419754,0)" xlink:href="#bw"/><use transform="matrix(0.04938271604938272,0,0,0.04938271604938272,57.135802469135804,0)" xlink:href="#aW"/></g><path fill="#333" d="M23 0v-37h61v-169l-59 37v-38l62-41h46v211h57V0H23" id="bA"/><use transform="matrix(0.04938271604938272,0,0,0.04938271604938272,0,0)" xlink:href="#bA" id="N"/><g id="O"><use transform="matrix(0.04938271604938272,0,0,0.04938271604938272,0,0)" xlink:href="#aO"/><use transform="matrix(0.04938271604938272,0,0,0.04938271604938272,9.876543209876544,0)" xlink:href="#aR"/><use transform="matrix(0.04938271604938272,0,0,0.04938271604938272,20.69135802469136,0)" xlink:href="#by"/></g><g id="P"><use transform="matrix(0.04938271604938272,0,0,0.04938271604938272,0,0)" xlink:href="#bt"/><use transform="matrix(0.04938271604938272,0,0,0.04938271604938272,9.876543209876544,0)" xlink:href="#aU"/><use transform="matrix(0.04938271604938272,0,0,0.04938271604938272,20.69135802469136,0)" xlink:href="#aR"/><use transform="matrix(0.04938271604938272,0,0,0.04938271604938272,31.506172839506174,0)" xlink:href="#aZ"/><use transform="matrix(0.04938271604938272,0,0,0.04938271604938272,41.38271604938272,0)" xlink:href="#aU"/><use transform="matrix(0.04938271604938272,0,0,0.04938271604938272,52.19753086419754,0)" xlink:href="#bw"/><use transform="matrix(0.04938271604938272,0,0,0.04938271604938272,57.135802469135804,0)" xlink:href="#aW"/></g><path fill="#333" d="M182-182c0 78-84 86-111 141h115V0H12c-6-101 99-100 120-180 1-22-12-31-33-32-23 0-32 14-35 34l-49-3c5-45 32-70 84-70 51 0 83 22 83 69" id="bB"/><use transform="matrix(0.04938271604938272,0,0,0.04938271604938272,0,0)" xlink:href="#bB" id="Q"/><path d="M745 16c10 136 94 152 256 158v150c-292-4-438-102-438-293v-334c0-126-113-189-338-189v-155c225 0 338-63 338-189v-333c0-191 146-289 438-293v149c-96 1-163 14-200 39s-56 65-56 119v332c0 138-78 221-233 248v12c155 27 233 110 233 248V16" id="bC"/><use transform="matrix(0.006944444444444445,0,0,0.006944444444444445,0,0)" xlink:href="#bC" id="R"/><path d="M733-1462l-41 528H537l-41-528h237" id="bD"/><path d="M326-731c0 353 139 584 471 588 87 0 196-19 327-58v162c-97 39-217 59-358 59-433-1-637-301-637-753 0-438 243-750 668-750 147 0 274 29 383 86l-78 156c-103-52-204-78-305-78-307 1-471 259-471 588" id="bE"/><path d="M1112-551c0 331-186 571-502 571-301 0-495-251-495-571 0-330 184-567 501-567 302 0 496 249 496 567zM614-131c207 0 310-140 310-420 0-277-104-416-312-416-206 0-309 139-309 416 0 280 104 420 311 420" id="bF"/><path d="M887 0v-707c0-173-79-260-238-260-205 0-307 133-307 398V0H160v-1098h147l27 148h10c69-112 181-168 336-168 259 0 389 134 389 401V0H887" id="bG"/><path d="M1020-150v138C933 9 849 20 768 20 527 20 406-95 406-324v-637H139v-94l267-49 77-287h105v293h438v137H588v637c0 130 64 195 192 195 62 0 142-7 240-21" id="bH"/><path d="M631-1118c283 0 470 204 465 491v113H322c5 250 120 375 344 375 130 0 253-25 370-76v160C925-5 804 20 672 20c-329 0-539-224-539-561 0-331 182-577 498-577zM326-662h573c0-203-91-305-272-305-183 0-284 102-301 305" id="bI"/><path d="M285-465v-168h659v168H285" id="bJ"/><path d="M707 0H520v-1298H102v-164h1022v164H707V0" id="bK"/><path d="M82-1098h188l262 654c55 137 84 233 89 290h6c15-75 45-172 90-292l239-652h189L670 143c-45 116-99 201-156 261-87 92-259 104-414 71V330c92 17 226 18 286-29 67-53 115-195 153-291" id="bL"/><path d="M1092-551c0 322-136 571-430 571-138 0-245-53-322-159h-12c24 220 7 402 12 631H158v-1590h147l27 148h8c73-112 181-168 322-168 294 0 430 246 430 567zM629-967c-241 0-288 156-289 416 0 151 24 259 70 323s120 97 221 97c181 0 272-141 272-422 0-276-91-414-274-414" id="bM"/><path d="M614-1126c85 0 127 46 127 139s-42 139-127 139-127-46-127-139 42-139 127-139zm0 876c85 0 127 46 127 139S699 29 614 29 487-18 487-111s42-139 127-139" id="bN"/><g id="T"><use transform="matrix(0.006944444444444445,0,0,0.006944444444444445,0,0)" xlink:href="#bD"/><use transform="matrix(0.006944444444444445,0,0,0.006944444444444445,8.534722222222223,0)" xlink:href="#bE"/><use transform="matrix(0.006944444444444445,0,0,0.006944444444444445,17.069444444444446,0)" xlink:href="#bF"/><use transform="matrix(0.006944444444444445,0,0,0.006944444444444445,25.60416666666667,0)" xlink:href="#bG"/><use transform="matrix(0.006944444444444445,0,0,0.006944444444444445,34.13888888888889,0)" xlink:href="#bH"/><use transform="matrix(0.006944444444444445,0,0,0.006944444444444445,42.673611111111114,0)" xlink:href="#bI"/><use transform="matrix(0.006944444444444445,0,0,0.006944444444444445,51.208333333333336,0)" xlink:href="#bG"/><use transform="matrix(0.006944444444444445,0,0,0.006944444444444445,59.74305555555556,0)" xlink:href="#bH"/><use transform="matrix(0.006944444444444445,0,0,0.006944444444444445,68.27777777777779,0)" xlink:href="#bJ"/><use transform="matrix(0.006944444444444445,0,0,0.006944444444444445,76.81250000000001,0)" xlink:href="#bK"/><use transform="matrix(0.006944444444444445,0,0,0.006944444444444445,85.34722222222224,0)" xlink:href="#bL"/><use transform="matrix(0.006944444444444445,0,0,0.006944444444444445,93.88194444444447,0)" xlink:href="#bM"/><use transform="matrix(0.006944444444444445,0,0,0.006944444444444445,102.4166666666667,0)" xlink:href="#bI"/><use transform="matrix(0.006944444444444445,0,0,0.006944444444444445,110.95138888888893,0)" xlink:href="#bD"/><use transform="matrix(0.006944444444444445,0,0,0.006944444444444445,119.48611111111114,0)" xlink:href="#bN"/></g><path d="M510-563l-393-535h207l290 410 291-410h207L717-563 1130 0H924L614-436 303 0H96" id="bO"/><path d="M1016-1462L389 0H211l627-1462h178" id="bP"/><path d="M498 0L82-1098h188l240 652c57 154 90 262 100 325h6c67-256 244-708 340-977h189L729 0H498" id="bQ"/><path d="M1026-301c0 225-197 321-448 321-165 0-290-23-375-69v-166c129 57 252 86 370 86 183 0 275-54 275-162 0-38-16-71-49-99s-108-63-226-106c-156-57-253-112-293-160s-61-105-61-171c2-338 524-340 789-217l-60 149c-121-48-228-72-319-72-157 0-236 44-236 133 0 41 17 74 51 98s111 57 232 101c141 51 234 101 280 151s70 111 70 183" id="bR"/><path d="M442-897c93-139 173-221 377-221 79 0 159 15 240 45l-49 166c-82-30-157-45-224-45-221 0-340 134-340 360V0H264v-1098h148l22 201h8" id="bS"/><path d="M596-1118c288 2 430 92 430 366V0H895l-37-152h-8C752-34 680 17 483 20 272 23 135-98 135-307c0-221 170-337 510-348l203-7c15-197-55-305-244-305-98 0-207 27-328 82l-63-137c131-64 258-96 383-96zm-72 991c194 0 325-116 322-311v-99c-251 15-522-6-522 232 0 119 67 178 200 178" id="bT"/><path d="M977 0v-707c0-97-9-165-27-203s-47-57-88-57c-58 0-100 28-126 83s-40 148-40 278V0H535v-707c0-173-42-260-125-260-56 0-96 26-120 79s-36 160-36 319V0H92v-1098h127l27 148h10c45-112 112-168 201-168 109 0 180 61 213 182h6c51-121 124-182 219-182 85 0 147 30 186 92s58 165 58 309V0H977" id="bU"/><path d="M770-262l16 24C748-89 683 87 592 289H440c51-215 88-399 111-551h219" id="bV"/><g id="U"><use transform="matrix(0.006944444444444445,0,0,0.006944444444444445,0,0)" xlink:href="#bD"/><use transform="matrix(0.006944444444444445,0,0,0.006944444444444445,8.534722222222223,0)" xlink:href="#bH"/><use transform="matrix(0.006944444444444445,0,0,0.006944444444444445,17.069444444444446,0)" xlink:href="#bI"/><use transform="matrix(0.006944444444444445,0,0,0.006944444444444445,25.60416666666667,0)" xlink:href="#bO"/><use transform="matrix(0.006944444444444445,0,0,0.006944444444444445,34.13888888888889,0)" xlink:href="#bH"/><use transform="matrix(0.006944444444444445,0,0,0.006944444444444445,42.673611111111114,0)" xlink:href="#bP"/><use transform="matrix(0.006944444444444445,0,0,0.006944444444444445,51.208333333333336,0)" xlink:href="#bI"/><use transform="matrix(0.006944444444444445,0,0,0.006944444444444445,59.74305555555556,0)" xlink:href="#bQ"/><use transform="matrix(0.006944444444444445,0,0,0.006944444444444445,68.27777777777779,0)" xlink:href="#bI"/><use transform="matrix(0.006944444444444445,0,0,0.006944444444444445,76.81250000000001,0)" xlink:href="#bG"/><use transform="matrix(0.006944444444444445,0,0,0.006944444444444445,85.34722222222224,0)" xlink:href="#bH"/><use transform="matrix(0.006944444444444445,0,0,0.006944444444444445,93.88194444444447,0)" xlink:href="#bJ"/><use transform="matrix(0.006944444444444445,0,0,0.006944444444444445,102.4166666666667,0)" xlink:href="#bR"/><use transform="matrix(0.006944444444444445,0,0,0.006944444444444445,110.95138888888893,0)" xlink:href="#bH"/><use transform="matrix(0.006944444444444445,0,0,0.006944444444444445,119.48611111111114,0)" xlink:href="#bS"/><use transform="matrix(0.006944444444444445,0,0,0.006944444444444445,128.02083333333337,0)" xlink:href="#bI"/><use transform="matrix(0.006944444444444445,0,0,0.006944444444444445,136.5555555555556,0)" xlink:href="#bT"/><use transform="matrix(0.006944444444444445,0,0,0.006944444444444445,145.09027777777783,0)" xlink:href="#bU"/><use transform="matrix(0.006944444444444445,0,0,0.006944444444444445,153.62500000000006,0)" xlink:href="#bD"/><use transform="matrix(0.006944444444444445,0,0,0.006944444444444445,162.15972222222229,0)" xlink:href="#bV"/></g><path d="M172-543c0-365 197-575 553-575 119 0 231 20 336 59l-62 158c-100-38-189-57-268-57-247 0-371 138-371 413 0 271 120 406 361 406 105 0 212-21 321-62v160C953 0 843 20 713 20c-347 1-541-210-541-563" id="bW"/><path d="M739-1436c0 71-43 115-106 115-71 0-107-38-107-115 0-76 36-114 107-114s106 38 106 114zM541-954l-269-21v-123h451v955l352 20V0H197v-123l344-20v-811" id="bX"/><g id="V"><use transform="matrix(0.006944444444444445,0,0,0.006944444444444445,0,0)" xlink:href="#bD"/><use transform="matrix(0.006944444444444445,0,0,0.006944444444444445,8.534722222222223,0)" xlink:href="#bE"/><use transform="matrix(0.006944444444444445,0,0,0.006944444444444445,17.069444444444446,0)" xlink:href="#bF"/><use transform="matrix(0.006944444444444445,0,0,0.006944444444444445,25.60416666666667,0)" xlink:href="#bG"/><use transform="matrix(0.006944444444444445,0,0,0.006944444444444445,34.13888888888889,0)" xlink:href="#bG"/><use transform="matrix(0.006944444444444445,0,0,0.006944444444444445,42.673611111111114,0)" xlink:href="#bI"/><use transform="matrix(0.006944444444444445,0,0,0.006944444444444445,51.208333333333336,0)" xlink:href="#bW"/><use transform="matrix(0.006944444444444445,0,0,0.006944444444444445,59.74305555555556,0)" xlink:href="#bH"/><use transform="matrix(0.006944444444444445,0,0,0.006944444444444445,68.27777777777779,0)" xlink:href="#bX"/><use transform="matrix(0.006944444444444445,0,0,0.006944444444444445,76.81250000000001,0)" xlink:href="#bF"/><use transform="matrix(0.006944444444444445,0,0,0.006944444444444445,85.34722222222224,0)" xlink:href="#bG"/><use transform="matrix(0.006944444444444445,0,0,0.006944444444444445,93.88194444444447,0)" xlink:href="#bD"/><use transform="matrix(0.006944444444444445,0,0,0.006944444444444445,102.4166666666667,0)" xlink:href="#bN"/></g><path d="M383-553l135-152 395-393h222L641-623 1163 0H950L524-504l-129 82V0H215v-1556h180c-3 337 9 689-16 1003h4" id="bY"/><path d="M532-1413l-268-21v-122h451v1413l352 20V0H188v-123l344-20v-1270" id="bZ"/><g id="W"><use transform="matrix(0.006944444444444445,0,0,0.006944444444444445,0,0)" xlink:href="#bD"/><use transform="matrix(0.006944444444444445,0,0,0.006944444444444445,8.534722222222223,0)" xlink:href="#bY"/><use transform="matrix(0.006944444444444445,0,0,0.006944444444444445,17.069444444444446,0)" xlink:href="#bI"/><use transform="matrix(0.006944444444444445,0,0,0.006944444444444445,25.60416666666667,0)" xlink:href="#bI"/><use transform="matrix(0.006944444444444445,0,0,0.006944444444444445,34.13888888888889,0)" xlink:href="#bM"/><use transform="matrix(0.006944444444444445,0,0,0.006944444444444445,42.673611111111114,0)" xlink:href="#bJ"/><use transform="matrix(0.006944444444444445,0,0,0.006944444444444445,51.208333333333336,0)" xlink:href="#bT"/><use transform="matrix(0.006944444444444445,0,0,0.006944444444444445,59.74305555555556,0)" xlink:href="#bZ"/><use transform="matrix(0.006944444444444445,0,0,0.006944444444444445,68.27777777777779,0)" xlink:href="#bX"/><use transform="matrix(0.006944444444444445,0,0,0.006944444444444445,76.81250000000001,0)" xlink:href="#bQ"/><use transform="matrix(0.006944444444444445,0,0,0.006944444444444445,85.34722222222224,0)" xlink:href="#bI"/><use transform="matrix(0.006944444444444445,0,0,0.006944444444444445,93.88194444444447,0)" xlink:href="#bD"/><use transform="matrix(0.006944444444444445,0,0,0.006944444444444445,102.4166666666667,0)" xlink:href="#bV"/></g><path d="M887 0v-707c0-173-79-260-238-260-205 0-307 133-307 398V0H160v-1556h182c-2 202 6 416-8 606h10c69-112 181-168 336-168 259 0 389 134 389 401V0H887" id="ca"/><g id="X"><use transform="matrix(0.006944444444444445,0,0,0.006944444444444445,0,0)" xlink:href="#bD"/><use transform="matrix(0.006944444444444445,0,0,0.006944444444444445,8.534722222222223,0)" xlink:href="#bE"/><use transform="matrix(0.006944444444444445,0,0,0.006944444444444445,17.069444444444446,0)" xlink:href="#bT"/><use transform="matrix(0.006944444444444445,0,0,0.006944444444444445,25.60416666666667,0)" xlink:href="#bW"/><use transform="matrix(0.006944444444444445,0,0,0.006944444444444445,34.13888888888889,0)" xlink:href="#ca"/><use transform="matrix(0.006944444444444445,0,0,0.006944444444444445,42.673611111111114,0)" xlink:href="#bI"/><use transform="matrix(0.006944444444444445,0,0,0.006944444444444445,51.208333333333336,0)" xlink:href="#bJ"/><use transform="matrix(0.006944444444444445,0,0,0.006944444444444445,59.74305555555556,0)" xlink:href="#bE"/><use transform="matrix(0.006944444444444445,0,0,0.006944444444444445,68.27777777777779,0)" xlink:href="#bF"/><use transform="matrix(0.006944444444444445,0,0,0.006944444444444445,76.81250000000001,0)" xlink:href="#bG"/><use transform="matrix(0.006944444444444445,0,0,0.006944444444444445,85.34722222222224,0)" xlink:href="#bH"/><use transform="matrix(0.006944444444444445,0,0,0.006944444444444445,93.88194444444447,0)" xlink:href="#bS"/><use transform="matrix(0.006944444444444445,0,0,0.006944444444444445,102.4166666666667,0)" xlink:href="#bF"/><use transform="matrix(0.006944444444444445,0,0,0.006944444444444445,110.95138888888893,0)" xlink:href="#bZ"/><use transform="matrix(0.006944444444444445,0,0,0.006944444444444445,119.48611111111114,0)" xlink:href="#bD"/><use transform="matrix(0.006944444444444445,0,0,0.006944444444444445,128.02083333333337,0)" xlink:href="#bN"/></g><g id="Y"><use transform="matrix(0.006944444444444445,0,0,0.006944444444444445,0,0)" xlink:href="#bD"/><use transform="matrix(0.006944444444444445,0,0,0.006944444444444445,8.534722222222223,0)" xlink:href="#bG"/><use transform="matrix(0.006944444444444445,0,0,0.006944444444444445,17.069444444444446,0)" xlink:href="#bF"/><use transform="matrix(0.006944444444444445,0,0,0.006944444444444445,25.60416666666667,0)" xlink:href="#bJ"/><use transform="matrix(0.006944444444444445,0,0,0.006944444444444445,34.13888888888889,0)" xlink:href="#bW"/><use transform="matrix(0.006944444444444445,0,0,0.006944444444444445,42.673611111111114,0)" xlink:href="#bT"/><use transform="matrix(0.006944444444444445,0,0,0.006944444444444445,51.208333333333336,0)" xlink:href="#bW"/><use transform="matrix(0.006944444444444445,0,0,0.006944444444444445,59.74305555555556,0)" xlink:href="#ca"/><use transform="matrix(0.006944444444444445,0,0,0.006944444444444445,68.27777777777779,0)" xlink:href="#bI"/><use transform="matrix(0.006944444444444445,0,0,0.006944444444444445,76.81250000000001,0)" xlink:href="#bD"/></g><path d="M227 174c161-4 256-22 256-158v-331c0-138 78-221 234-248v-12c-156-27-234-110-234-248v-332c-9-135-95-154-256-158v-149c293 4 439 102 439 293v333c0 126 113 189 338 189v155c-225 0-338 63-338 189V31c0 191-146 289-439 293V174" id="cb"/><use transform="matrix(0.006944444444444445,0,0,0.006944444444444445,0,0)" xlink:href="#cb" id="Z"/><path fill="#333" d="M186 0v-106H76V0H24v-248h52v99h110v-99h50V0h-50" id="cc"/><g id="aa"><use transform="matrix(0.04938271604938272,0,0,0.04938271604938272,0,0)" xlink:href="#cc"/><use transform="matrix(0.04938271604938272,0,0,0.04938271604938272,12.790123456790125,0)" xlink:href="#aW"/><use transform="matrix(0.04938271604938272,0,0,0.04938271604938272,22.66666666666667,0)" xlink:href="#aO"/><use transform="matrix(0.04938271604938272,0,0,0.04938271604938272,32.543209876543216,0)" xlink:href="#by"/><use transform="matrix(0.04938271604938272,0,0,0.04938271604938272,43.35802469135803,0)" xlink:href="#aW"/><use transform="matrix(0.04938271604938272,0,0,0.04938271604938272,53.23456790123457,0)" xlink:href="#aV"/></g><g id="ab"><use transform="matrix(0.04938271604938272,0,0,0.04938271604938272,0,0)" xlink:href="#aZ"/><use transform="matrix(0.04938271604938272,0,0,0.04938271604938272,9.876543209876544,0)" xlink:href="#aW"/><use transform="matrix(0.04938271604938272,0,0,0.04938271604938272,19.75308641975309,0)" xlink:href="#aQ"/></g><g id="ac"><use transform="matrix(0.04938271604938272,0,0,0.04938271604938272,0,0)" xlink:href="#aT"/><use transform="matrix(0.04938271604938272,0,0,0.04938271604938272,5.8765432098765435,0)" xlink:href="#aU"/><use transform="matrix(0.04938271604938272,0,0,0.04938271604938272,16.691358024691358,0)" xlink:href="#aV"/></g><g id="ad"><use transform="matrix(0.04938271604938272,0,0,0.04938271604938272,0,0)" xlink:href="#aW"/><use transform="matrix(0.04938271604938272,0,0,0.04938271604938272,9.876543209876544,0)" xlink:href="#aY"/><use transform="matrix(0.04938271604938272,0,0,0.04938271604938272,19.75308641975309,0)" xlink:href="#aW"/><use transform="matrix(0.04938271604938272,0,0,0.04938271604938272,29.629629629629633,0)" xlink:href="#aV"/><use transform="matrix(0.04938271604938272,0,0,0.04938271604938272,36.543209876543216,0)" xlink:href="#bz"/></g><path fill="#333" d="M135-194c53 0 70 44 70 98 0 56-19 98-73 100-31 1-45-17-59-34 3 33 2 69 2 105H25l-1-265h48c2 10 0 23 3 31 11-24 29-35 60-35zM114-30c33 0 39-31 40-66 0-38-9-64-40-64-56 0-55 130 0 130" id="cd"/><g id="ae"><use transform="matrix(0.04938271604938272,0,0,0.04938271604938272,0,0)" xlink:href="#aV"/><use transform="matrix(0.04938271604938272,0,0,0.04938271604938272,6.913580246913581,0)" xlink:href="#aW"/><use transform="matrix(0.04938271604938272,0,0,0.04938271604938272,16.790123456790127,0)" xlink:href="#aZ"/><use transform="matrix(0.04938271604938272,0,0,0.04938271604938272,26.666666666666668,0)" xlink:href="#cd"/><use transform="matrix(0.04938271604938272,0,0,0.04938271604938272,37.48148148148149,0)" xlink:href="#aU"/><use transform="matrix(0.04938271604938272,0,0,0.04938271604938272,48.296296296296305,0)" xlink:href="#aR"/><use transform="matrix(0.04938271604938272,0,0,0.04938271604938272,59.111111111111114,0)" xlink:href="#aZ"/><use transform="matrix(0.04938271604938272,0,0,0.04938271604938272,68.98765432098767,0)" xlink:href="#aW"/></g><g id="af"><use transform="matrix(0.04938271604938272,0,0,0.04938271604938272,0,0)" xlink:href="#aQ"/><use transform="matrix(0.04938271604938272,0,0,0.04938271604938272,5.8765432098765435,0)" xlink:href="#aU"/></g><path fill="#333" d="M84 4C32 4 15-41 15-95c0-55 18-99 73-99 29 0 47 12 58 34l2-30h48l-1 265h-49V-32C136-9 114 4 84 4zm21-34c32 0 41-29 41-66 0-36-9-64-40-64-33 0-39 30-40 65 0 43 13 65 39 65" id="ce"/><path fill="#333" d="M85 4C-2 5 27-109 22-190h50c7 57-23 150 33 157 60-5 35-97 40-157h50l1 190h-47c-2-12 1-28-3-38-12 25-28 42-61 42" id="cf"/><g id="ag"><use transform="matrix(0.04938271604938272,0,0,0.04938271604938272,0,0)" xlink:href="#aV"/><use transform="matrix(0.04938271604938272,0,0,0.04938271604938272,6.913580246913581,0)" xlink:href="#aW"/><use transform="matrix(0.04938271604938272,0,0,0.04938271604938272,16.790123456790127,0)" xlink:href="#ce"/><use transform="matrix(0.04938271604938272,0,0,0.04938271604938272,27.604938271604947,0)" xlink:href="#cf"/><use transform="matrix(0.04938271604938272,0,0,0.04938271604938272,38.41975308641976,0)" xlink:href="#aW"/><use transform="matrix(0.04938271604938272,0,0,0.04938271604938272,48.296296296296305,0)" xlink:href="#aZ"/><use transform="matrix(0.04938271604938272,0,0,0.04938271604938272,58.17283950617284,0)" xlink:href="#aQ"/></g><g id="ah"><use transform="matrix(0.04938271604938272,0,0,0.04938271604938272,0,0)" xlink:href="#aT"/><use transform="matrix(0.04938271604938272,0,0,0.04938271604938272,5.8765432098765435,0)" xlink:href="#aU"/><use transform="matrix(0.04938271604938272,0,0,0.04938271604938272,16.691358024691358,0)" xlink:href="#aV"/></g><path fill="#333" d="M4 7l51-268h42L46 7H4" id="cg"/><g id="ai"><use transform="matrix(0.04938271604938272,0,0,0.04938271604938272,0,0)" xlink:href="#cg"/><use transform="matrix(0.04938271604938272,0,0,0.04938271604938272,4.938271604938272,0)" xlink:href="#aW"/><use transform="matrix(0.04938271604938272,0,0,0.04938271604938272,14.814814814814817,0)" xlink:href="#aY"/><use transform="matrix(0.04938271604938272,0,0,0.04938271604938272,24.69135802469136,0)" xlink:href="#aW"/><use transform="matrix(0.04938271604938272,0,0,0.04938271604938272,34.567901234567906,0)" xlink:href="#aR"/><use transform="matrix(0.04938271604938272,0,0,0.04938271604938272,45.38271604938272,0)" xlink:href="#aQ"/><use transform="matrix(0.04938271604938272,0,0,0.04938271604938272,51.25925925925927,0)" xlink:href="#aZ"/></g><g id="aj"><use transform="matrix(0.04938271604938272,0,0,0.04938271604938272,0,0)" xlink:href="#aW"/><use transform="matrix(0.04938271604938272,0,0,0.04938271604938272,9.876543209876544,0)" xlink:href="#aR"/><use transform="matrix(0.04938271604938272,0,0,0.04938271604938272,20.69135802469136,0)" xlink:href="#by"/><use transform="matrix(0.04938271604938272,0,0,0.04938271604938272,31.506172839506174,0)" xlink:href="#cd"/><use transform="matrix(0.04938271604938272,0,0,0.04938271604938272,42.320987654320994,0)" xlink:href="#aU"/><use transform="matrix(0.04938271604938272,0,0,0.04938271604938272,53.135802469135804,0)" xlink:href="#aP"/><use transform="matrix(0.04938271604938272,0,0,0.04938271604938272,58.074074074074076,0)" xlink:href="#aR"/><use transform="matrix(0.04938271604938272,0,0,0.04938271604938272,68.8888888888889,0)" xlink:href="#aQ"/></g></defs></g></svg>